<?xml version="1.0" encoding="UTF-8"?>
<svg id="_レイヤー_2" data-name="レイヤー 2" xmlns="http://www.w3.org/2000/svg" xmlns:xlink="http://www.w3.org/1999/xlink" viewBox="0 0 400 400">
  <defs>
    <style>
      .cls-1 {
        fill: #8fdfff;
      }

      .cls-2 {
        fill: gray;
      }

      .cls-3 {
        fill: url(#_名称未設定グラデーション_260);
      }
    </style>
    <linearGradient id="_名称未設定グラデーション_260" data-name="名称未設定グラデーション 260" x1="202.72" y1="68.77" x2="194.42" y2="469.19" gradientUnits="userSpaceOnUse">
      <stop offset="0" stop-color="#fff" stop-opacity="0"/>
      <stop offset="1" stop-color="#94f7ff"/>
    </linearGradient>
  </defs>
  <g id="T03_icon">
    <rect class="cls-3" y="0" width="400" height="400" rx="84.93" ry="84.93"/>
    <path class="cls-1" d="M364.02,15.81c-3.99-2.77-8.19-5.16-12.42-7.18.69,1.06,1.27,1.88,1.73,2.29-1.13,1.73-5.46,1.21-11.26.64-19.01,4.1-24.94,11.43-41.78,13.78-18.25,1.76-32.36-10.55-35.94-13.09.46-2.05,8.61.49,21.38-1.53,12.27-5.9,17.7-8.39,24.11-10.72h-23.23c-6.56,2.71-18.11,5.11-28.03,5.27-5.01-.66-11.24-2.89-15.53-5.27h-35.84c4.62,1.12,7.83,1.72,7.81,3.81-6.7,6.11-41.28,10.06-42.64,12.94-3.28,2.37,41.3,21.74,68.7,3.14-.83,1.81-1.59,3.75-2.38,5.64.23.03.45.09.67.13-.08.38-.18.72-.28,1-8.09,21.09-15.89,46.81-20.13,63.38-14.06,50.47-13.48,108.75-14.45,122.62-3.76-4.62-18.6-26.76-23.02-32.65-6.22-8.3-13.87-13.19-14.06-18.4-.16-4.5-.3-8.31.87-12.43,14.88-4.45,19.59-14.19,26.92-25.6.56-.86.9-1.86.97-2.88,1.32-20.11,0-37.55-8.23-46.36-8.24,4.05-31.42,17.92-35.11,40.96-.65,6.86-1.81,15.39,5.92,28.97.87,6.85.46,7.55,0,7.8-4.33-3.85-36.6-47.1-31.5-53.46,3.27-5.11,3.03-6.07,3.27-19.36,9.95-10.52,6.69-23.17,6.27-26.19-.11-.78-.58-1.96-1-2.62-6.39-10.03-7.39-9.5-19.45-28.18-3.79-5.88-1.66-11.98-6.08-14.19-.72-.36-1.56-.15-1.95.56-2.09,3.73-2.05,11.76-1.07,16.6-1.37,3.83-6.5-8.81-25.36-8.38-4.88,5.17-3.45,23.01-4.21,29.95-.05.43-.45.68-.85.53-5.33-2.09-6.76-15.1-17.73-12.56-1.96,5.88,4.42,5.78,9.21,15.28,1.55,13.94,3.68,22.21,6.65,29.22,3.17,4.94,3.61,9.54,26.01,15.89,0,0,3.76,7.59,18.2,9.1,17.24,39.15,50.42,70.51,57.5,82.72-17.99,3.25-13.94-18.85-44.21-17.25-8.96-.73-36.27,10.83-42.48,23.4.77,1.73,14.26,20.04,43.15,20.81,13.39-.77,24.47-2.89,34.87-19.94,3.38-.55,5.49-.39,7.22,0,11.27,3.37,11.34,5.44,19.75,19.26,4.72,7.75,8.08,18.13,10.21,23.12.77,41.32,7.52,61.3,9.7,81.15,1.01,9.16,4.28,21.53,9.03,37.28,5.63,18.65,9.85,33.05,15.7,42.53,6.74,2.5,6.6-1.78,5.83-4.53-1.44-2.6-24.75-65.88-26.68-104.22,3.26-8.54,13.58-17.05,10.21-21.48-6.36-1.16-8.57,5.88-12.33,8.48-3.9-8.17-3.62-26.29-4.43-65.98-.81-39.47,2.31-55.29,4.62-65.02,2.83-4.4,10.85-15.33,24.85-20.52,31.98,15.12,46.43,6.64,56.35,2.31,19.65-10.55,33.95-34.18,35.74-50.47-4.14-1.64-32.17-12.52-64.34-1.25-6.07,2.6-23.79,9.73-29.76,41.03-9.25,5.73-18.2,13.2-20.32,14.16-1.66-6.7,13.31-64.74,29-105.13,14.78,31.75,46.57,38.07,50.7,40.91,1.03.08,4.91-2.62,4.26-4.77-5.91-5.64-18.78-17.49-22.56-30.89,17.44,11.53,56.14-12.03,63.23-11.41,11.79,1.44,18.43,3.69,20.87,1.09-.11-.99-.37-2.29-.8-3.81ZM85.64,23.2c1.95-2.14,12.07,2.92,19.29,9.39,7.85,7.03,12.54,15.95,11.56,16.76-.85.71-4.59-5.98-14.52-11.56-7.41-4.16-11.63-5.85-15.97-10.84-.36-.88-1.18-2.85-.36-3.76ZM97.19,86.29c-.64.84-8.48.16-15.03-8.38-5.53-7.2-6.42-16.17-5.39-16.57.87-.34,2.77,5.66,9.53,14.45,5.78,7.52,11.4,9.83,10.89,10.5ZM86.82,65.68c-3.58-11.66-2.75-27.75-2.14-31.79,9.66,4.08,17.41,12.28,28.67,21.65.62.52,1.17,1.18,1.57,1.88,2.88,4.94,5.02,6.86,3.79,18.82-.08.73-.31,1.49-.74,2.08-2.54,3.42-5.24,3.98-5.89,4.07-10.06,1.54-20.99-9.1-25.26-16.71ZM120.46,95.73c-4.51,3.51-10.84-.29-11.85-3.03,1.81-2.1,9.97-4.41,13.65-6.72,1.96,1.64,3.18,6.28-1.81,9.75ZM121.53,42.27s-.2-.18-.16-.29c.09-.26,1.3-.04,1.54,0,1.96.35,7.04,8.96,7.8,18.78-.43,6.44-2.72,11.45-3.54,11.25-.84-.2.76-5.69-.61-14.82-3.23-8.57-5.21-14.1-5.04-14.93ZM162.36,134.02c-.26-.03-.37-.93-.38-.98-2.48-5.02-2.64-13.26-2.37-17.08.87-12.04,12.79-23.33,25.14-32.22,3.76,1.59,6.36,20.08,3.9,33.38-4.92,15.22-17.21,23.61-18.2,22.83-4.41-3.83,8.24-28.58,10.11-33.74.23-3.38-1.2-4.09-1.61-4.35-1.63-1.02-3.55,2.28-4.38,2.83-7.73,14.74-10.85,29.46-12.21,29.33ZM133.31,207.7c-15.34,1.36-33.05-6.67-33.23-14.74,3.18-4.19,15.6-14.01,29.84-16.11,17.55-.51,28.3,7.08,27.89,8.81-.59,2.47-15.46.72-35.47,3.54-.72,0-2.82,3.03,1.08,6.07,8.6-1.37,28.1-1.59,36.48-2.31,1.06,2.52-11.1,13.37-26.59,14.74ZM274.04,81.28c18.49-8.09,43.44-3.66,49.7-1.44.29,10.98-10.11,24.66-26.3,37.28-21,14.83-49.88,3.86-47.39,2.02,5.49-4.05,41.32-18.35,49.41-21.99.51-2.06-.58-4.3-.58-4.3-1.46-1.78-4.72-1.8-5.78-1.28-14.01,6.91-37.71,17.75-44.79,20.31-2.14.77,4.62-21.43,25.72-30.58ZM221.24,20.74c-12.27,3.35-21.72-.54-25.6-2.58,6.12-2.47,13.98-5.28,34.35-13.12,1.87.15,7.7,1.77,10.45,3.26,1.21.55,2.14,1.08,2.46,1.52.03,3.28-12.82,8.52-21.66,10.93ZM284.39,49.42c-2.27.14-15.39-4.47-23.72-16.79-3.28-4.84-8.17-16.05-7.57-18.27,2.12-1.89,9,6.51,17.52,10.61,4.36,11.41,12.27,21.54,13.78,24.44Z"/>
    <g>
      <path class="cls-2" d="M42.59,205.02c5.48.59,9.56,2.2,12.23,4.85,2.18,2.13,3.27,4.79,3.27,7.98,0,4.69-1.86,8.27-5.59,10.75-3.47,2.32-8.33,3.48-14.58,3.48l-12.69-.35c-3.14,0-6.02.07-8.65.21-.38,0-.56-.32-.56-.95,0-.54.19-.84.56-.91,3.14-.23,4.97-.81,5.48-1.72.59-1.01.88-4.16.88-9.45v-25.23c0-3.72-.07-6.16-.21-7.31-.09-.8-.28-1.42-.56-1.86-.59-.87-2.57-1.42-5.94-1.65-.42-.05-.63-.35-.63-.91,0-.73.21-1.09.63-1.09,3.91.19,6.86.28,8.86.28l11.98-.42c6.75,0,11.56,1.17,14.44,3.51,2.37,1.88,3.55,4.62,3.55,8.22,0,3.14-1.09,5.69-3.27,7.66-1.99,1.8-5.06,3.3-9.21,4.5v.42ZM28.78,203.93c.77.05,2.12.07,4.04.07,10.47,0,15.71-3.67,15.71-11,0-3.28-1.15-5.77-3.44-7.48-2.11-1.57-5.07-2.35-8.89-2.35s-5.81.53-6.54,1.58c-.59.89-.88,3.87-.88,8.93v10.26ZM28.78,206.46v12.44c0,3.21.09,5.4.28,6.57.14.87.41,1.63.81,2.28.84,1.29,3.41,1.93,7.7,1.93,4.78,0,8.36-1.23,10.75-3.69,1.99-2.01,2.99-4.72,2.99-8.12,0-7.66-5.86-11.49-17.57-11.49-2.02,0-3.67.02-4.95.07Z"/>
      <path class="cls-2" d="M64.03,221.57v-31.52c0-3-.19-4.97-.56-5.9-.38-.96-1.12-1.44-2.25-1.44l-2.53.14c-.38,0-.56-.28-.56-.84s.27-.9.81-1.02c2.74-.56,6-1.52,9.77-2.88.47,0,.7.2.7.6-.19,4.43-.28,10.13-.28,17.11v25.76c0,4.31.19,6.78.56,7.42.4.63,1.77,1.07,4.11,1.3.44.07.67.36.67.88s-.21.77-.63.77c-2.88-.09-5.17-.14-6.85-.14-1.92,0-4.42.05-7.48.14-.38,0-.56-.26-.56-.77s.19-.81.56-.88c2.2-.16,3.48-.6,3.83-1.3.47-.87.7-3.34.7-7.42Z"/>
      <path class="cls-2" d="M89.45,199.33c4.64,0,8.45,1.69,11.42,5.06,2.72,3.07,4.08,6.95,4.08,11.63,0,5.29-1.68,9.58-5.03,12.86-2.86,2.81-6.35,4.22-10.47,4.22-4.69,0-8.5-1.72-11.46-5.17-2.62-3.07-3.94-6.89-3.94-11.46,0-5.27,1.72-9.58,5.17-12.93,2.9-2.81,6.31-4.22,10.23-4.22ZM89.45,201.47c-3,0-5.33,1.39-6.99,4.18-1.52,2.58-2.28,6.1-2.28,10.58,0,5.27.97,9.15,2.92,11.63,1.57,2.04,3.69,3.06,6.36,3.06,3.02,0,5.39-1.39,7.1-4.18,1.57-2.58,2.35-6.08,2.35-10.51,0-5.34-1.01-9.27-3.02-11.77-1.62-1.99-3.76-2.99-6.43-2.99Z"/>
      <path class="cls-2" d="M122.21,199.33c4.64,0,8.45,1.69,11.42,5.06,2.72,3.07,4.08,6.95,4.08,11.63,0,5.29-1.68,9.58-5.03,12.86-2.86,2.81-6.35,4.22-10.47,4.22-4.69,0-8.5-1.72-11.46-5.17-2.62-3.07-3.94-6.89-3.94-11.46,0-5.27,1.72-9.58,5.17-12.93,2.9-2.81,6.31-4.22,10.23-4.22ZM122.21,201.47c-3,0-5.33,1.39-6.99,4.18-1.52,2.58-2.28,6.1-2.28,10.58,0,5.27.97,9.15,2.92,11.63,1.57,2.04,3.69,3.06,6.36,3.06,3.02,0,5.39-1.39,7.1-4.18,1.57-2.58,2.35-6.08,2.35-10.51,0-5.34-1.01-9.27-3.02-11.77-1.62-1.99-3.76-2.99-6.43-2.99Z"/>
      <path class="cls-2" d="M169.06,206.53c3.07-4.76,6.75-7.13,11.03-7.13,3.12,0,5.56.96,7.34,2.88,1.64,1.76,2.46,4.09,2.46,6.99l-.11,7.91v4.53c0,4.33.15,6.78.46,7.34.3.63,1.7,1.07,4.18,1.3.37.07.56.34.56.81,0,.52-.19.77-.56.77-2.69-.09-5-.14-6.92-.14-1.73,0-4.19.05-7.38.14-.42,0-.63-.26-.63-.77,0-.47.21-.74.63-.81,2.16-.16,3.44-.6,3.87-1.3.37-.63.56-3.08.56-7.34v-11c0-1.69-.27-3.06-.81-4.11-1.15-2.46-3.07-3.69-5.76-3.69s-5,1.37-6.92,4.11c-.7.98-1.16,1.84-1.37,2.56-.19.7-.28,1.68-.28,2.92v9.21c0,4.22.19,6.67.56,7.34.4.66,1.83,1.09,4.29,1.3.37.07.56.36.56.88,0,.47-.19.7-.56.7-2.98-.09-5.31-.14-6.99-.14-1.92,0-4.37.05-7.34.14-.38,0-.56-.23-.56-.7,0-.51.21-.81.63-.88,2.23-.21,3.5-.64,3.83-1.3.37-.77.56-3.22.56-7.34v-11.14c0-1.69-.25-3.01-.74-3.97-1.17-2.46-3.13-3.69-5.87-3.69s-4.93,1.37-6.85,4.11c-1.01,1.45-1.51,3.28-1.51,5.48v9.21c0,4.26.14,6.71.42,7.34s1.65,1.07,4.11,1.3c.33.07.49.34.49.81,0,.52-.16.77-.49.77-2.79-.09-5.13-.14-7.03-.14-1.73,0-4.09.05-7.06.14-.38,0-.56-.26-.56-.77,0-.47.19-.74.56-.81,2.08-.16,3.34-.6,3.76-1.3.42-.73.63-3.17.63-7.34v-10.05c0-2.91-.16-4.83-.49-5.76-.35-1.05-1.05-1.58-2.11-1.58l-2.5.14c-.4,0-.6-.34-.6-1.02,0-.4.29-.69.88-.88,3.19-.75,6.3-1.72,9.35-2.92.52,0,.77.21.77.63-.09,2.58-.14,4.52-.14,5.83,2.95-4.47,6.48-6.71,10.58-6.71,2.44,0,4.47.69,6.11,2.07,1.43,1.24,2.41,2.93,2.95,5.06Z"/>
      <path class="cls-2" d="M250.88,181.65c.35,4.33.71,8.24,1.09,11.7v.21c0,.35-.36.53-1.09.53-.3,0-.54-.16-.7-.49-1.64-3.79-3.63-6.61-5.97-8.43-2.88-1.97-6.17-2.95-9.88-2.95-5.76,0-10.41,2.48-13.95,7.45-3.12,4.4-4.67,9.93-4.67,16.59,0,6.98,2.05,12.66,6.15,17.04,3.58,3.84,7.96,5.76,13.14,5.76,4.29,0,7.92-.92,10.89-2.78,2.51-1.57,4.76-3.94,6.75-7.1.14-.23.38-.35.7-.35s.64.12.95.35c.28.19.42.39.42.6s-.07.42-.21.63c-4.57,8.46-11.36,12.69-20.38,12.69-8.01,0-14.42-2.8-19.22-8.4-4.22-4.9-6.33-11-6.33-18.31,0-8.32,2.72-14.99,8.15-20.03,4.71-4.4,10.55-6.61,17.54-6.61,3.14,0,5.95.36,8.43,1.09,2.25.68,4.15,1.02,5.69,1.02.73,0,1.56-.07,2.5-.21Z"/>
      <path class="cls-2" d="M273.48,229.13c-1.71,1.52-3.37,2.58-4.99,3.16-1.5.54-3.26.81-5.27.81-2.62,0-4.72-.76-6.29-2.28-1.33-1.31-2-2.97-2-4.99,0-2.67.82-4.78,2.46-6.33,1.2-1.19,4.04-2.47,8.54-3.83,2.72-.82,4.62-1.63,5.69-2.42,1.05-.82,1.58-1.73,1.58-2.74v-1.86c0-4.92-1.54-7.38-4.6-7.38-2.02,0-3.64.57-4.88,1.72-.87.87-1.3,2.05-1.3,3.55,0,.91-.48,1.67-1.44,2.28-.87.54-1.92.81-3.16.81s-1.93-.64-1.93-1.93c0-2.18,1.46-4.17,4.39-5.97,2.6-1.59,5.45-2.39,8.54-2.39,3.8,0,6.41.8,7.84,2.39,1.24,1.38,1.85,3.65,1.83,6.82l-.14,15.57c-.07,4.08.83,6.12,2.71,6.12.66,0,1.24-.19,1.76-.56.28-.16.49-.25.63-.25.21,0,.4.13.56.39.16.23.25.47.25.7,0,.16-.09.3-.28.42-1.69,1.22-3.47,1.83-5.34,1.83-2.55,0-4.26-1.21-5.13-3.62ZM273.2,214.37c-.7.91-2.91,2.05-6.61,3.41-2.25.84-3.83,1.85-4.74,3.02-.82,1.05-1.23,2.39-1.23,4.01,0,1.71.58,3.1,1.76,4.18,1.01.91,2.17,1.37,3.48,1.37,2.27,0,4.11-.67,5.52-2,1.17-1.12,1.76-2.47,1.76-4.04l.07-9.95Z"/>
      <path class="cls-2" d="M293.48,207.02c3.14-5.08,6.19-7.63,9.14-7.63,1.22,0,2.2.22,2.95.67.63.4.95.86.95,1.37,0,1.15-.46,2.24-1.37,3.27-.75.84-1.46,1.26-2.14,1.26-.49,0-1.17-.21-2.04-.63-.87-.44-1.49-.67-1.86-.67-1.03,0-2.21.89-3.55,2.67-1.38,1.83-2.07,3.84-2.07,6.04v8.33c0,4.29.16,6.74.49,7.34.4.7,1.83,1.14,4.29,1.3.38.07.56.34.56.81,0,.52-.19.77-.56.77-2.88-.09-5.26-.14-7.13-.14-2.01,0-4.46.05-7.34.14-.42,0-.63-.26-.63-.77,0-.47.21-.74.63-.81,1.43-.12,2.39-.27,2.88-.46.38-.16.69-.45.95-.84.47-.68.7-3.13.7-7.34v-10.05c0-2.98-.21-4.92-.63-5.83-.52-1.01-1.17-1.51-1.97-1.51l-2.56.14c-.45,0-.67-.29-.67-.88,0-.49.29-.83.88-1.02,3.35-.68,6.49-1.65,9.42-2.92.56,0,.84.21.84.63-.09,2.79-.14,5.04-.14,6.75Z"/>
      <path class="cls-2" d="M311.72,213.17c-.14,1.12-.21,2.1-.21,2.92,0,4.26,1.25,7.75,3.76,10.47,2.06,2.2,4.38,3.3,6.96,3.3,4.15,0,7.42-1.69,9.8-5.06.12-.19.28-.28.49-.28.28,0,.56.13.84.39.26.19.39.38.39.56,0,.26-.14.56-.42.91-2.98,4.48-7.01,6.71-12.09,6.71s-8.74-1.7-11.67-5.09c-2.6-3.05-3.9-6.89-3.9-11.53,0-5.22,1.66-9.5,4.99-12.83,2.86-2.88,6.33-4.32,10.4-4.32,3.82,0,6.97,1.37,9.45,4.11,2.11,2.34,3.28,5.22,3.51,8.64,0,.35-.12.64-.35.88-.24.23-.48.35-.74.35-4.85-.14-9.57-.21-14.16-.21-3.21,0-5.56.02-7.06.07ZM312.14,210.64c1.41.05,3.37.07,5.9.07,3.26,0,6.36-.09,9.31-.28.47,0,.7-.32.7-.95-.23-2.58-1.05-4.61-2.46-6.11-1.27-1.31-2.78-1.97-4.53-1.97-2.16,0-4.05.9-5.69,2.71-1.5,1.62-2.58,3.79-3.23,6.54Z"/>
      <path class="cls-2" d="M341.25,213.17c-.14,1.12-.21,2.1-.21,2.92,0,4.26,1.25,7.75,3.76,10.47,2.06,2.2,4.38,3.3,6.96,3.3,4.15,0,7.42-1.69,9.8-5.06.12-.19.28-.28.49-.28.28,0,.56.13.84.39.26.19.39.38.39.56,0,.26-.14.56-.42.91-2.98,4.48-7.01,6.71-12.09,6.71s-8.74-1.7-11.67-5.09c-2.6-3.05-3.9-6.89-3.9-11.53,0-5.22,1.66-9.5,4.99-12.83,2.86-2.88,6.33-4.32,10.4-4.32,3.82,0,6.97,1.37,9.45,4.11,2.11,2.34,3.28,5.22,3.51,8.64,0,.35-.12.64-.35.88-.24.23-.48.35-.74.35-4.85-.14-9.57-.21-14.16-.21-3.21,0-5.56.02-7.06.07ZM341.67,210.64c1.41.05,3.37.07,5.9.07,3.26,0,6.36-.09,9.31-.28.47,0,.7-.32.7-.95-.23-2.58-1.05-4.61-2.46-6.11-1.27-1.31-2.78-1.97-4.53-1.97-2.16,0-4.05.9-5.69,2.71-1.5,1.62-2.58,3.79-3.23,6.54Z"/>
      <path class="cls-2" d="M374.71,207.02c3.14-5.08,6.19-7.63,9.14-7.63,1.22,0,2.2.22,2.95.67.63.4.95.86.95,1.37,0,1.15-.46,2.24-1.37,3.27-.75.84-1.46,1.26-2.14,1.26-.49,0-1.17-.21-2.04-.63-.87-.44-1.49-.67-1.86-.67-1.03,0-2.21.89-3.55,2.67-1.38,1.83-2.07,3.84-2.07,6.04v8.33c0,4.29.16,6.74.49,7.34.4.7,1.83,1.14,4.29,1.3.38.07.56.34.56.81,0,.52-.19.77-.56.77-2.88-.09-5.26-.14-7.13-.14-2.01,0-4.46.05-7.34.14-.42,0-.63-.26-.63-.77,0-.47.21-.74.63-.81,1.43-.12,2.39-.27,2.88-.46.38-.16.69-.45.95-.84.47-.68.7-3.13.7-7.34v-10.05c0-2.98-.21-4.92-.63-5.83-.52-1.01-1.17-1.51-1.97-1.51l-2.56.14c-.45,0-.67-.29-.67-.88,0-.49.29-.83.88-1.02,3.35-.68,6.49-1.65,9.42-2.92.56,0,.84.21.84.63-.09,2.79-.14,5.04-.14,6.75Z"/>
    </g>
  </g>
</svg>